<?xml version="1.0" encoding="UTF-8" standalone="yes"?><svg xmlns="http://www.w3.org/2000/svg" xmlns:xlink="http://www.w3.org/1999/xlink" version="1.2" baseProfile="tiny-ps" viewBox="0 0 300 300"><title>vrognas</title><g><g fill="#e6bbac" transform="matrix(.1 0 0 -.1 0 300)"><path d="M1302 2989c-238-32-481-130-686-277l-79-57-96-96-96-95-67-95-67-94-50-100c-61-124-104-246-133-378L6 1695v-390l22-102c29-132 72-254 133-378l50-100 67-94 67-95 96-95 95-96 95-67 94-67 100-50c124-61 246-104 378-133l102-22h390l102 22c132 29 254 72 378 133l100 50 95 67 94 67 96 95 95 96 67 94 67 95 50 100c61 124 104 246 133 378l22 102v390l-22 102c-29 132-72 254-133 378l-50 100-67 94-67 95-96 95-95 96-95 67-94 67-100 50c-124 61-247 105-373 131l-97 21-165 4-165 4-73-10z"></path></g><g fill="#c79683" transform="matrix(.1 0 0 -.1 0 300)"><path d="M1302 2989c-238-32-481-130-686-277l-79-57-96-96-96-95-67-95-67-94-50-100c-61-124-104-246-133-378L6 1695v-390l22-102c29-132 72-254 133-378l50-100 67-94 67-95 96-95 95-96 95-67 94-67 100-50C991 79 1172 25 1346 7l50-6 11 30 11 29h17c9 0 25-5 36-10l19-11V-3l106 6 105 7 99 20c126 26 249 69 375 131l100 50 95 67 94 67 96 95 95 96 67 94 67 95 50 100c61 124 104 246 133 378l22 102v390l-22 102c-29 132-72 254-133 378l-50 100-67 94-67 95-96 95-95 96-95 67-94 67-100 50c-124 61-247 105-373 131l-97 21-165 4-165 4-73-10zm208-573c58-2 115-7 127-11l23-7-6-9-5-9h10c6 0 11-7 11-15v-15h22l-5-20-5-20 10 6 10 6-2-28c-1-16-1-31 0-34s3-18 5-34c5-36 13-45 25-26 15 24 11 2-5-30l-16-30h17v-27l-1-28 22-3 22-3-2-21-1-21-45-19c-25-10-65-22-90-25s-53-11-61-18c-8-6-31-19-51-28l-37-17-5-62c-3-35-14-95-25-135l-21-71 15-68 14-67-10-12-10-13-33 3c-17 2-35 3-38 4s-11 12-16 24l-11 24 17 39c10 21 25 76 35 122l18 83-7 59-7 59-14 12c-8 6-14 8-14 4 0-5-8-1-18 8l-17 16-55 6c-30 4-81 14-112 22l-58 16-34-17c-19-9-39-16-45-16-14 0-15 27-1 35l10 6v-12c0-7 2-10 5-8 2 3-1 23-7 45-6 21-10 44-8 49 2 6 4 36 4 68l1 57 30 24c17 13 33 22 37 20l8-5-6 14-5 14 33 37c28 32 72 63 143 102l20 10 55-3c30-3 102-6 160-7zm-295-536c-2-4-23-10-45-14l-41-6-11 6-11 7 29 11 28 12 28-4 28-4-5-8zm-295-48v-14l-33 29-33 28 15 6 16 7 17-22c10-11 18-27 18-34zm760 8c0-5-5-10-11-10h-10l6 10c3 6 8 10 11 10 2 0 4-4 4-10zm-292-40c5-31-12-89-49-166l-29-62 1-28c1-16 6-40 13-53l11-24-12-4-13-5v-40l14 5 14 5 10-10 10-10 84-5 83-6 7-11c13-19 10-21-34-33l-43-11-79 12-78 13-10 16-9 17h-37l-4 12-4 12-22-22c-27-27-27-31-2-61l20-23 16 6 16 6 30-25c16-14 41-28 55-31l26-7 14 18 13 19h52l53 1-2-27-2-28h10c5 0 9-7 9-15v-15l-17-1c-59-2-88-25-41-33 7-1 19-5 26-9l12-8v22l40-4 40-4 23-19c12-10 24-20 26-21s-14-19-35-39-32-33-24-28l15 7-10-9c-5-5-22-20-37-33l-27-23-35-3-36-2v8c0 4-8 6-17 5l-18-3-7 11-8 11v-30l-26 30c-14 17-22 23-18 15l8-15-17 14-17 13v-21l-15 5-15 6 6 9 5 9h-21v35l-9-14-9-14-11 22-12 21h22l-20 26c-11 14-23 41-27 60l-6 34-8-5c-11-7-48 32-70 76l-21 39 18 7c22 8 52 43 53 60v13l-25-10-25-10-22 18c-12 9-34 29-50 44l-28 26-1 21c-2 23-3 29-12 51-3 8-10 52-16 97l-11 83 10 25c12 31 24 32 51 1l21-25 50-21 50-21 40 6c51 9 108 32 108 45v9l-41-14-42-15h-41c-22 0-47 4-55 9l-14 9 39 12c21 6 66 13 99 16s66 8 74 10l13 4-12 14-11 15 28-8 28-7 3-24zm-78 14c0-2-7-4-15-4s-15 4-15 10v9l15-5c8-4 15-8 15-10zm274 5-6-11 34 3c18 2 38 0 44-3l10-7 13 9 14 8 28-10 29-10-6-9-6-10-59 3c-32 2-59 0-59-3 0-11 130-39 195-42l60-3 3-24c2-14 7-29 11-33l8-8-5-24-4-25-12 7-11 7 12-15 13-16-9-30c-9-30-47-91-65-105-5-3-15-4-21-1l-12 4-16-15-16-16-36-5-37-4-20 10-19 10 6 30 7 29h-24l12 15 12 14-20 33-20 33 5 12c2 6-5 41-16 77l-20 66 5 15 6 15-15-6-15-5-7 11-7 11 12 14c7 8 17 15 22 15h9l-7-11zm-709-29-4-30 10 5c5 4 9 15 9 26v19h9c14 0 23-19 32-63l7-40-14-33-14-33 10-26c13-33 18-32 12 4l-4 29 10 6 10 6 6-27c10-48 27-205 23-209-2-3-16 5-30 16l-26 21-11 37c-45 154-54 201-51 290l1 32h19l-4-30zm965-420c0-35-20-80-46-101l-17-14 5 15c3 8 14 41 24 72 21 64 34 74 34 28zm-746-44c14-30 26-62 26-70v-15l-25 23-25 23-3 32c-2 17-7 34-10 38-10 9-8 23 2 23 5 0 21-24 35-54zm642-24-16-16-12 13-13 12 25 21 25 20 3-17 4-17-16-16zm-500-432h14l-4-25-5-25h19v-61l16-16 16-16-5-18-5-19h9c5 0 11-11 15-24 3-14 11-27 18-29l13-5-4 34-3 34h12l13 1-18 13-17 13 13 27 14 26 9-8c4-4 3 1-4 10l-13 17 21 11 22 12 23-22 24-22 12 8 12 7-7-18-6-18 33 6 34 5-2-34-1-33 24 6 25 6-6-10-7-11 16-6 16-6 10 7 11 6-7-11-7-12h10c5 0 13 5 16 10 3 6 15 10 25 10h19l13 19c7 10 24 21 36 26l24 7-5 18-5 19 17 7c9 4 20 6 24 5l8-1-6 10-6 10 25 12c14 6 26 15 26 20 0 4 5 8 11 8h10l-6-10-6-9 25-7 25-6-4-19-4-19 15-27c7-16 14-36 14-46v-18l10 6 10 6v-28l-77-84c-92-100-109-115-210-182-163-110-164-110-217-75l-34 22-45 76c-63 106-98 183-103 227-10 87-12 118-7 130l5 13 12-7 11-7-11 15-11 14v45c0 25 2 37 4 28l4-18h15zm4-535c0-8-2-15-4-15s-6 7-10 15l-5 15h9c6 0 10-7 10-15zm558-47-3-23-22-3-23-3v15c0 14 25 35 43 36h8l-3-22zm-488 1118c0-2 7-7 16-10l15-6-6 10c-6 10-25 14-25 6zm160-155c0-5-8-12-17-14l-18-5 38-1 38-1-15 15c-17 17-26 19-26 6zm80-125c0-9 5-16 10-16 6 0 10 4 10 9 0 6-4 13-10 16l-10 6v-15z"></path></g><g fill="#907566" transform="matrix(.1 0 0 -.1 0 300)"><path d="M1302 2989c-238-32-481-130-686-277l-79-57-96-96-96-95-67-95-67-94-50-100c-61-124-104-246-133-378L6 1695v-390l22-102c29-132 72-254 133-378l50-100 67-94 67-94 85-86c47-48 119-112 160-144l75-57 14 18 13 17-6-22-7-22 53-30c29-17 56-31 60-31s10 11 14 25c3 13 12 29 20 36l14 11v57l16 15c8 9 22 36 30 61 9 25 20 45 25 45 11 0 11 2 0-37l-9-32 11-4 12-4-23-22c-12-12-22-28-22-36 0-7-14-39-31-70l-31-57 8-8c5-5 55-27 112-50 107-43 249-83 340-95l52-7v27l8-12c4-6 20-15 35-18l27-7v19c0 43 46 57 80 23l20-20v13c0 6 4 18 9 26l9 15 16-13c9-8 16-22 16-32V11l-22-4-23-4 28-2 27-1v15c0 8 4 15 10 15h9l-6-16-6-16 69 7c187 18 366 70 539 156l100 50 95 67 94 67 96 95 95 96 67 94 67 95 50 100c61 124 104 246 133 378l22 102v390l-22 102c-29 132-72 254-133 378l-50 100-67 94-67 95-96 95-95 96-95 67-94 67-100 50c-124 61-247 105-373 131l-97 21-165 4-165 4-73-10zm167-560 43-10 14 12 14 11 77-4 78-3 39-20 40-20 19-34 18-34-5-12-4-13 11-11 11-11h-9c-5 0 0-7 11-15 10-8 29-15 41-15h21l6-27c4-16 6-46 5-68s0-44 1-50c2-5-1-25-5-43l-8-33-41 6-41 7-22-20-22-19-58-12c-32-7-75-17-95-22l-38-10-10-19c-5-10-16-24-23-32-20-21-46-90-49-128-1-19-8-44-15-55l-13-19v-66h13l12-1 18-39 19-40-44-45-43-45h-55l-16 25-16 25-9-6-9-5 22-29 23-29 29-10c16-6 43-11 60-11l31 1 45 23 45 22 18 32 19 32-16 25c-9 14-22 25-29 26-13 0-77 92-77 110 0 6 9 23 19 38 11 15 21 40 23 55l3 29 15 8c39 20 122 50 127 46 2-3-6-8-19-12s-34-16-47-26l-24-19h14c8 0 25 7 38 17l24 16 12-16 11-16 52-2 52-3v-27l10 6 10 6v-11c0-6-10-15-22-20-13-5-18-9-12-9 22-2 80 22 112 46l32 24-5 9c-3 5-1 11 5 15l10 6 20-6 20-6v-15c0-8 7-17 15-20l15-6v-157l-12-28c-7-15-33-58-60-94l-48-66-11-54c-13-61-27-92-76-164-18-27-39-59-46-69-7-11-20-27-29-37-9-9-15-19-12-21 2-2-12-21-31-41s-35-42-35-48v-11l-15 12-15 12v-33l-9 5-9 6-4-12c-2-6-13-13-24-14-24-3-44-9-67-19l-18-7-80 5-80 5-22 23-22 23-3-18-4-18 29-30c15-16 46-38 67-49l40-19h66v-21l-10 6-10 6 6-15c3-9 11-16 16-16 6 0 16-7 22-16l12-15 59-4 60-3 17 9 18 10v-13l1-13 10 17c5 10 31 32 57 49s67 53 92 78c25 26 56 54 69 63l23 16 14-5 14-5v-38h20v-50h20v-24c0-14 5-28 10-31 15-9 12-38-9-86-28-61-55-96-168-212-122-126-163-163-193-172-13-4-42-25-64-47-23-22-49-44-60-50l-18-10 8 14 7 13-20-18-20-17-6 7-7 6v-11c0-7-9-21-20-32l-20-20v13c0 22-31 78-46 84-17 6-92 120-133 201l-29 57-10 55c-6 30-16 111-22 180-7 69-18 156-26 193-8 38-14 71-14 75 0 3 19-12 43-33 23-22 53-46 67-53l25-14-85 80-85 80-17 33c-9 19-28 59-42 89l-25 55-7 49-7 48-8-13-8-13-25 14-26 13-21 56c-11 30-29 91-40 136l-19 80v135h18l17 1-19 14-19 14 13 16c17 21 27 19 55-10l25-24v145l15 20 14 21 9 74 10 74 26 51 25 51 50 46c28 26 56 47 64 47s41 13 73 30l59 30h70c39 0 90-5 114-11zm364-515 19-12-24-8c-12-4-63-8-113-8l-90-1-20-10-20-9 12 16c13 15 73 37 128 45 17 3 32 7 34 9 6 6 54-8 74-22zm447-95c5-24 5-49 2-58l-5-15-8 20c-4 10-8 39-8 63l-1 44 6-6c4-3 10-25 14-48zm-39-29 23-70-20-47-19-46-14-5-14-5 6 22 5 21h-8c-5 0-12-4-15-10-3-5-12-10-18-10h-13l4 40 4 40h14c8 0 17 7 20 15l6 15-16 24-15 24 15 31c9 17 19 31 24 31s19-31 31-70zm-60-182c5-47 7-57 14-67l7-12-18-20c-9-10-23-19-29-19h-13l-6 23c-3 12-6 33-6 46v24l17 19c19 21 32 23 34 6zm55-25c-10-10-19 5-10 18l8 13 4-13c2-7 1-15-2-18zm-283-206c-17-95-58-182-110-231l-37-35-13 11c-7 6-13 17-13 26v15l39 37c44 42 61 72 85 150 10 30 20 61 22 69l4 13 15-12 14-12-6-31zm-844-734c0-64 7-107 21-134 6-10 10-24 9-31 0-7-9 5-19 28l-18 41-3 49c-3 60-1 104 6 104 2 0 4-26 4-57zM934 466c-3-15-8-25-11-23-2 3-1 17 3 31 3 15 8 25 11 23 2-3 1-17-3-31zm-164 5c0-12-20-25-27-18s6 27 18 27c5 0 9-4 9-9zm-40-28c0-3-7-3-15 1l-15 5v-7c0-8-50-35-85-47l-20-6 11 11c6 6 31 21 55 34l43 24 13-5c7-3 13-7 13-10zm124 2c-4-8-10-15-15-15h-8l5 15c4 8 10 15 15 15h8l-5-15zm296 1c0-8 9-21 20-29l20-14-16-29-16-29 4 33c3 17 2 32-2 32s-12 11-18 25l-12 25h10c6 0 10-6 10-14zm-340-44c0-5-6-17-14-28l-15-19-12 13-13 12h24v30h15c8 0 15-4 15-8zm463-65c30-31 62-77 54-77-9 0-54 47-60 63-3 9-11 17-17 17h-11l11-20 11-20h-10c-12 0-31 33-31 54 0 25 18 19 53-17zm-512-18c-13-11-26-17-29-14-8 8 20 35 37 35l16-1-24-20zm1038-13 11-13-6-16c-3-8-14-17-24-20l-19-5-11 13-11 14 11 20c12 24 33 27 49 7zm-575-61 5-15h-9c-6 0-10 7-10 15s2 15 4 15 6-7 10-15zm-174-65c0-5-2-10-4-10-3 0-8 5-11 10l-6 10h10c6 0 11-4 11-10zm165 0c-3-5-15-15-26-20l-19-11v11c0 6 10 15 23 20 29 12 29 12 22 0zm560 0 6-10h-10c-5 0-13 5-16 10l-6 10h10c5 0 13-4 16-10zm-717 1784c-20-13-39-28-43-34l-6-10 6-20 6-20 22 1 22 1-12 5c-18 7-16 23 2 23 8 0 15-4 15-9v-8l28 5 27 6-34 9-35 9 13 8 13 8-13 4-14 5 37 1h38l-6-9c-3-5-9-7-14-4s-11 1-14-3l-6-9 53-7c106-13 133-18 172-32 22-7 46-14 52-14h13l-11 24-11 23-40 23-40 22-63-4-64-4 5 7 4 7-18-5-19-5-14 15-14 14-37-23zm-40-101c7-3 16-2 19 1 4 3-2 6-13 5l-19-1 13-5zm167 0c-48-11-84-25-103-41l-19-17 15-14 15-14 26 10c14 5 53 10 85 12l60 2 11 16 12 16 21-12c32-17 37-13 11 10l-24 20 25-6 25-6-19 15-20 16-50-1c-28-1-60-3-71-6zm473-492-14-20-100-16c-110-17-136-25-84-24 19 1 54 1 78 0l43-1-5-9-5-8 53 17c29 10 68 26 85 35l32 16-4 12-4 12-30 3-31 3-14-20zm-438-8v-9l53-16c28-9 74-19 101-23l48-7-7 11-6 11h-32c-18 1-50 8-72 16-22 9-50 18-62 21l-23 5v-9z"></path></g><g fill="#50526b" transform="matrix(.1 0 0 -.1 0 300)"><path d="M1302 2989c-238-32-481-130-686-277l-79-57-96-96-96-95-67-95-67-94-50-100c-61-124-104-246-133-378L6 1695v-390l22-102c42-193 119-377 223-533 66-98 183-235 234-274l36-27 47 27c90 52 150 80 272 130 19 8 46 21 60 29 14 7 62 32 108 54l82 40v18c0 34 20 91 46 129l26 38-7 65c-4 36-13 98-20 138l-14 71-34 45c-36 47-81 149-92 210l-7 36-17 6c-10 3-27 15-38 28l-20 22-20 65c-30 94-41 153-47 261l-6 96 15 13 15 12 24-6 23-6 7 38c3 20 6 61 6 89v53l12-3 13-2 5 50 5 51 35 68c19 37 49 85 67 106l32 37 33 13c18 7 53 22 78 34l45 21 120 1c66 1 127 4 136 8l16 7 91-5 90-5 51-21 51-22 14 5c8 3 17 3 21-1 3-4 12-7 18-7 7 0 27-4 45-9l33-8 11-26c6-15 11-40 12-57 3-40 43-181 65-226l17-35 3-58c1-33 6-68 11-80l8-21-5-50c-2-27-7-68-12-90-11-54-16-118-13-190 1-33 3-96 4-140l2-80-25-51c-15-29-44-73-65-99-38-46-138-131-182-154l-22-12v19l-17-2c-9-2-23-11-32-22-17-20-102-64-126-64-7 0-17-5-21-11l-7-11 21 6 21 7 10-19 10-20 32-4 31-5 35 34c20 18 39 33 42 33 4 0 13 9 21 20s21 20 30 20c8 0 31 14 50 31 19 16 49 37 65 46 17 8 40 25 52 36l23 20 7-7c4-3 8-12 9-19s9-40 18-73l16-62v-50c0-28-5-63-11-79l-10-28 25 24 26 24-16-49c-9-27-25-58-35-70-11-11-19-26-19-32 0-7-4-12-8-12-5 0-15-11-22-25s-15-23-18-20c-2 2-10-1-17-8s-40-38-73-70c-33-31-64-66-67-78-4-11-9-18-12-15s-16-17-29-45l-24-50-10 6-11 7 7-27 6-26-13 3c-7 2-21 12-30 22l-16 20-34-14c-46-19-78-42-79-58v-13l-9 5-8 6-27-23c-31-27-33-37-7-37 11 0 23-4 26-10l6-10h-10c-5 0-21 4-35 10l-25 9-16-15c-8-9-15-19-15-24v-8l43 5c23 3 54 12 69 20l28 13-3 11-2 11 40 14c22 8 46 13 55 12l15-3-34-24-33-24-8 13-8 13-11-22-12-21-36-18c-20-9-38-22-40-29l-4-12 40 20c22 10 49 19 59 19h19l18 20c10 11 22 20 27 20s15 5 22 12l12 12-4 22-4 22 21 11c25 14 28 4 4-16-10-8-13-12-8-10l10 5-1-31c-1-34 15-69 28-61 4 3 8 1 8-4s7-9 15-9h15l-11 13-11 13 7 10 6 11-16-6-16-7 7 29c4 16 11 37 16 47l10 19 24-6 25-7 25 28c13 15 49 55 79 87l55 60 1-20v-19l9 22c5 13 14 23 20 23h10v41l8-5 9-5 28 60c16 33 36 65 44 72l15 12-7-17c-3-10-9-41-13-68l-7-51-12 5-13 5 5-19 5-18-11-6c-6-4-11-12-11-17 0-13 56 47 78 83 9 16 20 28 24 28 14 0 9-15-12-38-11-12-20-27-20-35s-11-23-25-33-25-23-25-29c0-5-55-65-122-132l-122-122-16 9-17 9 5-25 5-25-19-14-19-14 10-1c15 0 305 296 345 353 18 26 35 47 37 47 8 0-11-56-23-71l-14-16 7-6 6-7h-27l12-12 11-11-10-19c-6-11-9-22-6-24 2-2 10 7 17 21s17 25 22 25 7 4 4 8c-3 5 2 21 10 37 8 15 17 45 20 67 4 21 11 41 15 44l9 5 9-23c5-13 12-47 16-75l7-53h9c5 0 9 3 10 8 0 4 2 23 5 42l4 35-8 25c-4 14-6 33-4 43l4 18 21-7c12-4 37-8 55-9l32-2-11 13c-6 8-15 12-19 9-5-3-11-1-14 4l-6 9 17 5 18 5-25 2-25 2 25 7 25 7 21-23c11-12 23-20 26-17s5-8 3-24l-2-29 23 5c13 2 24 8 24 13s5 9 11 9h10l-7-11-7-11 21 6 21 7 16-25 17-25-7-11-6-10 27-25c28-26 36-29 47-18l7 6-12 14-11 13 7 7 7 7 8-12 8-13 43 48c146 166 269 420 322 666l22 102v390l-22 102c-29 132-72 254-133 378l-50 100-67 94-67 95-96 95-95 96-95 67-94 67-100 50c-124 61-247 105-373 131l-97 21-165 4-165 4-73-10zm190-180 21-11 7 12c4 7 12 11 18 9l11-4-14-19-14-18-32 16c-17 9-35 13-40 10l-9-5v21h16c8 0 25-5 36-11zm95-5c-3-3-12-4-19-1l-13 5 19 1c11 1 17-2 13-5zm-17-24c-18-12-30-13-30-2 0 4 10 9 22 9l23 2-15-9zm675-830 7-11-26-20c-14-11-26-25-26-30 0-14 23-6 41 16 22 26 27 20 40-51l11-59-6-56c-3-31-17-92-31-137l-26-81-25-31-26-30h-26c-15 0-33 4-41 9l-14 9 6 52 6 53 17 18 17 19h-33v112l14-5 15-6-6 17-6 17 8-7 7-7 14 14c19 19 18 32-5 44l-18 10-7-6-6-6v31c0 44 17 84 48 109l27 22 22 1c12 0 25-5 28-10zm55-1306c0-2-12-10-27-17l-28-14-13 4-14 5 29 18 28 17 13-5c6-2 12-6 12-8zm-129-27-12-12 7 18c3 10 9 15 12 12s0-11-7-18zm-252-58c-8-5-10-9-6-9 5 0-1-12-13-27-12-16-24-26-27-25-3 2-10-2-14-10l-9-13v11c0 6 11 22 24 36 12 14 26 33 29 43l7 16 11-7 11-6-13-9zm646-29 6-10h-10c-5 0-13 5-16 10l-6 10h10c5 0 13-4 16-10zm-677 1463c-22-5-24-23-3-23h15v-41l23-8c28-11 30-9 22 28l-7 31-16 8c-9 5-25 7-34 5zm-282-39-29-16 18-11 18-10 56 18c31 10 60 22 64 25l8 7-53 1-53 1-29-15zm-396-4-15-9 10-9c12-10 85-32 109-32 43 0-5 43-59 53l-31 6-14-9zm484-78-11-7 8-20 8-20v18l1 17h29l-5-14-5-14 68-4c73-5 88-2 60 13l-17 10 5 10 6 9-14-6-15-5-7 10-6 11h-47c-26 0-52-4-58-8zm-560-44-49-31 12-4 13-5 34 21 34 21 7-17 7-18 5 12 4 12 15-6 14-5 15 12 15 12 1-13v-14l8 20 8 20-11 7c-6 4-27 8-47 8h-35l-50-32zm93 6c-3-3-12-4-19-1l-13 5 19 1c11 1 17-2 13-5zm354-327-13-22 18 17c10 10 16 20 13 22-3 3-11-5-18-17zm-101-7c-21-21-27-50-11-50 5 0 11 7 15 15 3 8 17 20 31 27 30 13 33 28 5 28h-20l-20-20zm215-142c-11-7-47-18-80-25l-60-13 59 6c61 6 106 21 106 36 0 10-1 10-25-4zm-297-425c6-2 18-2 25 0l12 5h-50l13-5zm55 0c9-2 23-2 30 0l12 5h-60l18-5zm-309-188c-7-52-4-74 24-168l21-68 33-47c19-26 39-61 46-77 12-28 49-62 58-52 2 2-21 46-52 97-69 114-79 143-94 264l-12 96h-9c-4 0-11-20-15-45zm1126-165c0-5 5-10 10-10 6 0 10 5 10 10 0 6-4 10-10 10-5 0-10-4-10-10zm215-20 8-13-16 6-17 6 12-19c7-10 16-16 20-14 12 8 10 32-4 40l-11 7 8-13zm-1412-72c-7-13-14-33-18-45l-6-21 11-7 10-6 16 34 16 34-9 17-9 17-11-23zm1387 3-10-20 12-28 12-28 4 37 3 37 15-6 14-5-5-8c-7-11 16-60 27-60h8l-16 25-16 24 6 9 6 10-25 16-24 16-11-19zm-433-7c-4-4-7-14-7-23v-15l11 11c6 6 10 16 7 23l-3 11-8-7zm-30-41c-4-3-7-11-7-17v-10l12 12c6 6 9 14 7 17-3 3-9 2-12-2zm433-38c-6-15-8-30-5-33s5-2 5 3c0 4 6 2 14-4l15-12-4 32c-6 43-12 47-25 14zm-484-4c-4-7-5-15-2-18 9-9 19 4 14 18l-4 13-8-13zm294-2v-10l10 6c6 3 10 8 10 11 0 2-4 4-10 4-5 0-10-5-10-11zm-1200-13c0-2 7-7 16-10l15-6-6 10c-6 10-25 14-25 6zm145-4c-5-4-11-15-13-26l-3-18 10 7 11 6-6-14-5-15 10-7 11-6-6-11-7-11 10 6 11 7 11-14 11-13-8-8-7-8 11 6 12 7 6-16 6-16-7-10-6-11 13 8 12 8-7-24c-3-13-19-35-35-49l-29-25h87l-5 31-5 31 10 7 11 7 17-26 16-25 10 6 9 6 15-13c17-14 19-12 28 19l7 22h-43l5 14 6 14-18-5-17-4-36 39c-20 22-38 38-41 36-9-9-27 24-31 56-3 35-13 45-31 32zm913-46-5-25 12-4 11-5-4 29c-5 35-8 36-14 5zm-987-24c-15-27-14-32 5-32h15l-6-10-6-10h31l-3 18c-2 9-8 26-14 36l-11 19-11-21zm994-43-7-21 10-10 10-10 6 11 7 11h-22l6 20c3 11 4 20 1 20-2 0-8-9-11-21zm-435-36c0-10-9-37-20-60-25-56-18-55 14 3 27 49 33 74 16 74h-10v-17zm-300-3c0-5 5-10 10-10 6 0 10 5 10 10 0 6-4 10-10 10-5 0-10-4-10-10zm325-70c-9-18-14-34-12-37 3-2 10 5 17 16l11 21h31l-4 12c-2 6-9 13-16 16l-11 3-16-31zm-229-15c4-8 8-15 10-15s4 7 4 15-4 15-10 15h-9l5-15zm59-11c-24-37-13-40 14-4l22 30h-10c-5 0-16-12-26-26zm535-8c0-9 5-16 10-16 6 0 10 4 10 9 0 6-4 13-10 16l-10 6v-15zm-678-81c-6-14-10-25-8-25s11 11 20 25l16 25h-8c-5 0-14-11-20-25z"></path></g><g fill="#494658" transform="matrix(.1 0 0 -.1 0 300)"><path d="M1302 2989c-238-32-481-130-686-277l-79-57-96-96-96-95-65-92c-36-51-88-137-117-193l-51-101-35-107c-19-58-38-118-41-133l-6-28h50l1 28 1 27 5-18 5-17 9 5 9 6v-10c0-5-6-12-12-14l-13-5 18-1 17-1v20h111l25 25 25 25h-11c-5 0-10 7-10 15s5 15 10 15h10v24c0 13-4 26-8 28-5 2-12 16-16 32l-7 29 15-6 16-6v13c0 8 6 17 13 20l12 6-12 6c-7 3-13 10-13 15v9h40v20h-40v21c0 11-7 27-15 35-19 20-19 39 1 58l15 16-4 22-4 23-2-22-1-23h-10c-18 0-11 24 15 52 14 15 25 34 25 43v15h38l5 13 4 12 17-14 17-14 11 11 12 12h132l14 20c8 11 20 20 26 20 7 0 14 5 16 12l4 11 27-7 27-6v-15c0-8 4-15 9-15h9l-5 23-6 22 14-12c7-7 23-13 36-13h23v20h91l6 30c5 27 23 43 23 21 0-5 9-11 20-14l20-5v-163l10 6 10 6v-10c0-6-4-11-10-11h-9l4-102 4-103 16-45 15-45-1 30c-1 17-1 36 0 42l1 13 12-3 13-2 5 50 5 51 35 68c19 37 49 85 67 106l32 37 33 13c18 7 53 22 78 34l45 21 120 1c66 1 127 4 136 8l16 7 91-5 90-5 51-21 51-22 14 5c8 3 17 3 21-1 3-4 12-7 18-7 7 0 27-4 45-9l33-8 11-26c6-15 11-40 12-57 3-40 43-181 65-226l17-35 3-58c1-33 6-68 11-80l8-21-5-50c-2-27-7-68-12-90-11-54-16-118-13-190 1-33 3-96 4-140l2-80-25-51c-15-29-44-73-65-99-38-46-138-131-182-154l-22-12v19l-17-2c-9-2-23-11-32-22-17-20-102-64-126-64-7 0-17-5-21-11l-7-11 21 6 21 7 10-19 10-20 32-4 31-5 35 34c20 18 39 33 42 33 4 0 13 9 21 20s21 20 30 20c8 0 31 14 50 31 19 16 49 37 65 46 17 8 40 25 52 36l23 20 7-7c4-3 8-12 9-19s9-40 18-73l16-62v-50c0-28-5-63-10-79l-10-28 20 24c11 13 23 21 26 18 11-11-25-97-56-136l-30-39-1-28-1-29-5 18-5 17-9-6-9-5 6-10 5-9-8 1c-4 1-14 1-21 0-17-1-142-126-142-141 0-6-4-9-8-6l-8 5-18-51-17-50-13 5-12 5 4-35 4-34-18-15c-11-9-13-12-5-8l14 7-7-11-7-12 10-38 11-38 22-1 23-1-13 5-13 5 12 14 12 14-17-6-17-7 7 29c4 16 11 37 15 46l9 17 29-1 28-1 22 22c11 11 21 25 21 29s23 30 50 57 50 55 50 62c0 6 5 15 11 19l11 7-6-34-6-34 10 22c5 13 14 23 20 23h10v50h10c5 0 21 21 34 48 14 26 36 61 50 77l24 30 8-8 8-7-19-14-19-14-2-28c-1-16-3-29-4-29s-3-15-5-34c-2-18-7-36-11-40-5-3-16-15-24-25l-15-19 20 13c11 7 40 41 65 76 39 56 60 76 60 59 0-3-20-37-45-77l-46-73 32 35 31 35-6-25c-4-14-9-38-12-55l-5-30 15 19c8 10 20 40 25 68l11 49 25 37c14 20 25 43 25 50v14l24-6c13-3 31-9 40-12l16-6v44l18-7c35-14 71-23 75-18 3 2 8-4 11-14l6-18 33-15 32-15 1-12c3-26 4-28 12-15l9 13 58-36c33-19 64-34 69-32s40 45 77 97l67 94 50 100c62 125 105 247 134 379l22 102v390l-22 102c-29 132-72 254-133 378l-50 100-67 94-67 95-96 95-95 96-95 67-94 67-100 50c-124 61-247 105-373 131l-97 21-165 4-165 4-73-10zm152-120c-4-7-44 0-44 7 0 2 11 3 24 2 14-1 23-5 20-9zm96-57c0-2-7-10-15-18l-15-15-34 10-35 9-5-11-4-12-1 17c-1 9-7 19-13 21-7 3 17 5 55 4 37 0 67-2 67-5zm43-9c-7-2-19-2-25 0l-13 5h50l-12-5zm-23-23c-18-12-30-13-30-2 0 4 10 9 22 9l23 2-15-9zm-810-340c0-5-5-10-11-10h-10l6 10c3 6 8 10 11 10 2 0 4-4 4-10zm1485-490 7-11-26-20c-14-11-26-25-26-30 0-14 24-6 38 14 7 9 17 17 22 17 12 0 30-91 30-148v-47l-20-77c-21-85-42-131-73-165l-20-23h-26c-14 0-32 4-40 9l-14 9 6 52 6 53 17 18 17 19h-33v112l14-5 15-6-6 17-6 17 8-7 7-7 14 14c19 19 18 32-5 44l-18 10-7-6-6-6v31c0 44 17 84 48 109l27 22 22 1c12 0 25-5 28-10zm-2-517-6-14-9 9-9 9 7 17 7 18 7-13c5-7 6-19 3-26zm-59-19c9-8 16-23 16-32v-16l-20 22c-31 33-27 57 4 26zm-59-3 5-10-10-6-10-6v15c0 18 6 21 15 7zm95-77c0-8-4-14-10-14h-10v-40h-30l6 27c12 46 44 66 44 27zm80 11c6-8 10-19 8-25l-3-11-24 25-24 26h15c9 0 21-7 28-15zm-13-48c-2-6-9-13-15-15l-12-4v41l15-6 16-5-4-11zm93-8v-9h-60v-10c0-5-7-10-15-10-17 0-19 9-6 29l9 14 14-6 15-5 13 8c15 10 30 4 30-11zm-159-9-12-7 7-16 6-17-15 6-15 5-8-12-7-12 13 8 13 8-6-17c-4-10-7-22-7-27s-4-9-10-9h-9l5 13 5 14-16 13c-8 7-15 20-15 30v17l25-5 25-4 6 16 6 16 10-6 10-6-11-8zm-116-97v-78l-10-8-10-9 13-5 12-5-6-9c-3-5-10-9-15-9h-9l4 83c3 67 12 117 20 117 0 0 1-35 1-77zm165 67c0-5-7-10-15-10s-15 5-15 10c0 6 7 10 15 10s15-4 15-10zm-20-40c0-5-4-10-10-10-5 0-10 5-10 10 0 6 5 10 10 10 6 0 10-4 10-10zm-120-29c0-6-4-12-8-15l-9-5v14c0 8 4 15 9 15 4 0 8-4 8-9zm0-51c0-5-5-10-11-10h-10l6 10c3 6 8 10 11 10 2 0 4-4 4-10zm290-86c0-2-17-4-37-4h-38l13 9 13 8 25-5c13-2 24-6 24-8zm-14-114c8 0 14-5 14-11v-10l-12 7-13 7 20-24c11-13 26-30 34-36l15-13h-65l6 10 6 10h-15c-9 0-16 5-16 10v10h-52l11 14 12 14-11 7c-5 3-10 13-10 22v15l13-5c8-3 20-1 28 4l14 8 3-19 3-20h15zm-466-347c0-14-63-100-82-112l-18-11v14c0 11 30 56 70 104 12 13 30 16 30 5zm425 327c3-5 11-10 16-10h10l-6 10c-3 6-11 10-16 10h-10l6-10zM510 2100l-15-10 15-10 15-10-15-11-15-11 13-5 12-5v-71l-22-18c-11-11-17-19-12-19 12 0 31-43 26-58-2-7-11-12-20-13l-17-1 13-5c6-2 12-11 12-19v-14l-22-1-23-1 13-5c14-6 16-33 2-33h-10v-38l-12-5-13-5 13-1 12-1v-40h20v-40h58l5-12 5-13 1 22 1 22 16 9c9 5 15 12 15 15-1 4-1 14-1 22v15h48l10-13 11-13-5-22-6-21 13-13c8-7 22-14 32-14l17-2v38h-40v40h90v20h61l-6 10-6 10h30l7 23c10 27 5 60-8 68l-11 7 8 12 8 13-13-8-13-8 6 15 6 16-27 7-27 7 13 5c6 3 12 11 12 18 0 8 7 18 17 23l16 10-5 13c-3 8-7 18-9 24-2 5-16 22-31 37l-27 28H650v20l-27-13c-16-6-31-16-35-21l-7-10 6-28 6-28h-53l-1 38c-1 20-4 49-8 64l-6 27-15-9zm37-332-5-13-1 19c-1 11 2 17 5 13 3-3 4-12 1-19zm1341 225c-22-5-24-23-3-23h15v-41l23-8c28-11 30-9 22 28l-7 31-16 8c-9 5-25 7-34 5zm-282-39-29-16 18-11 18-10 56 18c31 10 60 22 64 25l8 7-53 1-53 1-29-15zm-396-4-15-9 10-9c12-10 85-32 109-32 43 0-5 43-59 53l-31 6-14-9zm-327-28-11-7 22-11 23-11-5 19c-5 20-11 22-29 10zm807-52-15-10 10-1c6-1 18-1 27 0l18 2-6-14-5-15 68-4c73-5 88-2 60 13l-17 10 5 10 6 9-14-6-15-5-7 10-6 11h-94l-15-10zm-556-42-49-31 13-5 14-4 30 22 30 22 13-19 14-18 1 23v22l23-1 22-1-17-5c-10-2-18-9-18-14 0-13 24-11 38 3l12 12 1-14v-15l8 20 8 20-11 7c-6 4-27 8-47 8h-35l-50-32zm447-321-13-22 18 17c10 10 16 20 13 22-3 3-11-5-18-17zm-101-7c-21-21-27-50-11-50 5 0 11 7 15 15 3 8 17 20 31 27 30 13 33 28 5 28h-20l-20-20zm215-142c-11-7-47-18-80-25l-60-13 59 6c61 6 106 21 106 36 0 10-1 10-25-4zm-297-425c6-2 18-2 25 0l12 5h-50l13-5zm55 0c9-2 23-2 30 0l12 5h-60l18-5zm-301-178c-17-55-15-67 14-164l26-86 33-46c18-25 35-55 39-66 7-22 53-69 61-61 3 2-22 50-55 105l-60 100-15 64c-8 35-18 93-23 129l-8 65-12-40zm1298-135c0-5 5-10 11-10h10l-6 10c-3 6-8 10-11 10-2 0-4-4-4-10zm-220-42c0-18 4-39 9-47l9-13 6 10c8 13-4 71-15 78l-9 5v-33zm331-35c19-24 31-33 48-33h15l-20 18c-10 10-28 21-38 25l-19 7 14-17zm-618-212c-79-80-143-149-143-152 0-4-7-10-16-13-9-4-14-9-11-12s68 56 144 133c154 153 191 194 177 192-5-1-73-67-151-148zm-750 24 6-38-15 19-15 19 10-22c6-12 14-23 19-25 4-1 20-20 36-40l28-37-7-29-6-29-24-13c-36-20-30-29 10-16l35 11-5 12c-2 7-2 20 1 28l6 16 19-6 19-6v26l24-28c14-16 27-34 29-40 5-15 13-8 21 21l7 22h-40l-62 55c-34 30-65 55-68 55-4 0-7 17-7 37v37l-13 4-14 5 6-38zm432 22c-44-17-75-40-75-54v-13l-12 2-13 3 3-13 2-13-7 4c-5 3-17-1-27-9l-19-13 16-7 16-6 11 7 10 6v-31h-24c-14 0-27 4-31 10l-6 9-14-6c-8-3-15-11-15-18v-12l23 2c12 1 34 3 48 4 14 0 34 8 45 16l19 15-20-6-20-6 22 16c13 9 45 22 72 29l50 11 10 22 10 22-15 21c-17 24-18 24-59 8zm15-112-35-22-7 10-7 11-21-27-21-27h-18c-19 0-41-18-41-35v-10l8 10c4 6 32 19 62 29s62 25 71 32c8 8 20 14 26 14 10 0 27 30 21 35-2 2-19-7-38-20zm31-39c-6-16-10-31-7-33 7-8 28 37 23 50l-5 12-11-29zm-301 4c0-5 5-10 10-10 6 0 10 5 10 10 0 6-4 10-10 10-5 0-10-4-10-10zm330-59c-15-28-12-33 10-19 21 13 27 38 10 38-5 0-14-9-20-19z"></path></g><g fill="#2a1a15" transform="matrix(.1 0 0 -.1 0 300)"><path d="m1495 2851-50-7 45-8c25-4 61-12 80-16 19-5 48-12 64-15l30-6-13-8-12-8 31-13c17-7 33-16 35-20l5-8-39 9c-21 5-54 7-74 6l-37-3v8c0 4-8 8-17 8h-18l15-10 15-10h-77c-42 0-84-3-94-7l-17-6 8 12 8 13-42-7-41-7v22h61l-3 28-3 27-12-2c-6-2-27-4-45-5l-33-2-99-51-100-50-48-60c-55-70-92-136-101-183l-7-33 11 7 10 6-12-20-13-21 16-33 15-33-14-45-13-45 5-40c3-22 6-48 6-58v-17l10 5c5 4 9 10 9 16 0 5 9 18 20 29s20 28 20 38v17l53 65 53 65 50 25c27 14 77 35 109 47l60 22 83-7 83-8 12 8c7 4 22 8 35 8h22v32l14-11 13-11 74-10c41-5 89-14 108-19 46-14 111-24 140-22l25 1 38-26c21-15 38-29 39-33 0-3 2-24 4-46 4-38 8-63 20-123 3-15 7-34 8-42s10-23 19-32l18-18v23c0 13 3 27 7 30l6 7 14-11 13-11v-22c0-12 5-27 11-33l11-11-11-6-11-7v-57l-15-6-15-5v-31h23l-6-7-7-6 18-13 17-13-11-1h-11l-2-60-1-60h8c12 0 34 109 33 163l-1 49 13-4c6-3 14-15 17-29l5-24 5 75c6 83-4 366-15 447l-7 52-29 6c-15 4-40 15-54 26l-25 20v15c0 26-51 104-84 128-42 32-156 84-236 107l-65 19-55-2c-30 0-77-4-105-7zm88-135c30-13 110-86 94-86-4 0-3-10 4-21l11-22-40 32c-21 18-45 43-53 57-7 14-25 32-39 39-33 18-18 19 23 1zm187 4 15-10h-15c-8 0-22 5-30 10l-15 10h15c8 0 22-5 30-10zm-367-22c14-13 35-31 48-40l24-18-39 16c-50 20-74 36-80 51l-5 13h14c8 0 25-10 38-22zm127-73c0-7 9-24 21-39l20-26-3-30-3-30-32 81-32 80 15-12c8-6 14-17 14-24zm80-33v-16l-13 19c-8 11-17 29-20 40l-7 20 20-24c11-13 20-30 20-39zm-236 19 6-9-20 5c-23 6-26 13-6 13 8 0 17-4 20-9zm436-26v-10l-10 15c-5 8-10 20-10 25v10l10-15c5-8 10-19 10-25zm-466-21 34-17 5-18c6-23 6-23-40-4-19 8-42 15-50 15h-15l23-21 24-20-22 10c-12 6-36 11-53 11h-31l7-11 6-11-28 3c-16 2-35 0-42-4l-12-8v20l38 10c20 5 46 12 57 14 11 3 2 3-20 1-23-2-50-6-60-10l-20-7 10 11c10 11 116 49 142 51 7 1 28-6 47-15zm-234-64c-44-24-62-25-32-2 13 10 33 18 45 19l22 2-35-19zm535-550-6-10 8 1c4 0 17 4 28 9l20 9h-22c-12 1-25-3-28-9zm585-30-15-10h12c6 0 15 5 18 10 8 12 4 12-15 0zm-530-50-15-11 29 7 28 7-6-24-7-24 15 19 15 19 7-17 7-18 7 12 7 12 32-16 31-17v10c0 11-92 51-117 51-10 0-25-5-33-10zm-548-36c-24-14-41-28-38-31s17 2 32 11c14 10 28 15 31 12s12 2 20 10l15 15 32-6 31-6-15 10c-8 6-26 11-40 11h-25l-43-26zm998-54c0-5 5-10 10-10 6 0 10 5 10 10 0 6-4 10-10 10-5 0-10-4-10-10zm-664-281c-14-11-26-25-26-30v-10l26 20c15 12 33 21 41 21h14l-6 10c-9 15-19 12-49-11zm594-40v-10l10 6c6 3 10 8 10 11 0 2-4 4-10 4-5 0-10-5-10-11zm-10-84c0-23-17-77-41-132l-19-43h10c6 0 10 6 10 13v12l10-15c5-8 11-12 14-10 8 9 28 181 22 187-3 4-6-2-6-12zm-12-418c-1-42-2-77-1-77 5 0 43 85 43 96 0 6-9 22-19 35l-19 24-4-78zm80-132-4-36 18 23c18 24 19 39 1 45l-11 4-4-36zm65-97-11-43 14 19c12 17 20 66 11 66-2 0-8-19-14-42zm-1046 19-7-19 11-66c17-104 29-145 50-172l19-25-16 40c-9 22-24 90-33 150l-17 110-7-18zm1078-20c-4-10-5-21-1-24 10-10 18 4 13 24l-4 18-8-18zm-62-52v-14l9 5 8 5-5 10c-9 13-12 11-12-6zm24-44c-15-30-25-56-23-58 6-6 58 96 54 105-2 4-15-17-31-47zm-142 28c-4-6-5-12-2-15 2-3 7 2 10 11 7 17 1 20-8 4zm-139-147c-42-48-90-96-106-106l-30-17v11c0 6 9 30 20 53l21 42-24-27-24-26-8-39-7-38-18-20c-10-11-22-33-25-50l-7-30 15 20c9 11 17 26 17 33v12h19c10 0 24 7 31 15l12 15h-9c-6 0 24 35 66 78 72 73 148 162 138 162-2 0-39-40-81-88zm-291-143c-22-11-32-17-22-15 30 9 18-4-18-20l-35-14v-15c0-8-8-19-17-25l-18-12 18 6c11 3 30 9 43 12s24 9 24 13 20 13 45 20l45 13v12c0 7-6 19-12 28l-13 16-40-19zm55-17c0-8-58-32-76-32-12 1 27 24 44 26 8 2 16 5 20 8 8 8 12 7 12-2zm-484-4 7-33 28-35 29-35v-49l15 22 16 22-17 25c-9 14-21 25-26 25-13 0-33 22-34 38-1 6-2 21-2 32l-2 20h-22l8-32zm42-180-18-18h31l6 15c8 23 0 24-19 3z"></path></g></g></svg>